<svg width="375" height="98" viewBox="0 0 375 98" fill="none" xmlns="http://www.w3.org/2000/svg">
<rect width="375" height="98" fill="white"/>
<g clip-path="url(#clip0_2466_46413)">
<path d="M78 -2H297C294.894 -1.39731 293.418 0.495246 293.345 2.68446L293.317 3.5618C293.317 17.0587 282.375 28 268.878 28H106.122C92.6249 28 81.6835 17.0587 81.6835 3.5618L81.6545 2.68447C81.5823 0.49525 80.1059 -1.39731 78 -2Z" fill="black"/>
<path opacity="0.35" d="M336.5 19.9999C336.5 18.8033 337.47 17.8333 338.667 17.8333H355.333C356.53 17.8333 357.5 18.8033 357.5 19.9999V25.9999C357.5 27.1965 356.53 28.1666 355.333 28.1666H338.667C337.47 28.1666 336.5 27.1965 336.5 25.9999V19.9999Z" stroke="black"/>
<path opacity="0.4" d="M359 21V25C359.805 24.6612 360.328 23.8731 360.328 23C360.328 22.1269 359.805 21.3388 359 21Z" fill="black"/>
<path d="M338 20.6666C338 19.9302 338.597 19.3333 339.333 19.3333H354.667C355.403 19.3333 356 19.9302 356 20.6666V25.3333C356 26.0696 355.403 26.6666 354.667 26.6666H339.333C338.597 26.6666 338 26.0696 338 25.3333V20.6666Z" fill="black"/>
<path fill-rule="evenodd" clip-rule="evenodd" d="M323.33 19.6079C325.546 19.608 327.678 20.4594 329.283 21.9862C329.404 22.1041 329.598 22.1026 329.717 21.9829L330.873 20.8162C330.933 20.7555 330.967 20.6733 330.966 20.5877C330.966 20.5021 330.931 20.4202 330.87 20.3602C326.655 16.3207 320.005 16.3207 315.79 20.3602C315.729 20.4202 315.694 20.502 315.694 20.5876C315.693 20.6732 315.727 20.7555 315.787 20.8162L316.943 21.9829C317.062 22.1028 317.256 22.1043 317.377 21.9862C318.983 20.4593 321.114 19.6079 323.33 19.6079ZM323.33 23.4036C324.548 23.4035 325.722 23.856 326.624 24.6732C326.747 24.7892 326.939 24.7867 327.058 24.6676L328.212 23.5009C328.273 23.4397 328.307 23.3567 328.306 23.2704C328.305 23.1842 328.27 23.1018 328.208 23.0419C325.46 20.4855 321.204 20.4855 318.455 23.0419C318.393 23.1018 318.358 23.1842 318.357 23.2705C318.356 23.3568 318.39 23.4398 318.451 23.5009L319.605 24.6676C319.724 24.7867 319.917 24.7892 320.039 24.6732C320.941 23.8566 322.114 23.4041 323.33 23.4036ZM325.643 25.9574C325.645 26.0439 325.611 26.1273 325.549 26.1879L323.552 28.2036C323.494 28.2628 323.414 28.2961 323.33 28.2961C323.247 28.2961 323.167 28.2628 323.109 28.2036L321.111 26.1879C321.049 26.1272 321.015 26.0438 321.017 25.9573C321.019 25.8708 321.057 25.7889 321.121 25.7309C322.396 24.652 324.265 24.652 325.54 25.7309C325.604 25.7889 325.642 25.8709 325.643 25.9574Z" fill="black"/>
<path fill-rule="evenodd" clip-rule="evenodd" d="M309.667 17.6665H308.667C308.114 17.6665 307.667 18.1142 307.667 18.6665V27.3332C307.667 27.8855 308.114 28.3332 308.667 28.3332H309.667C310.219 28.3332 310.667 27.8855 310.667 27.3332V18.6665C310.667 18.1142 310.219 17.6665 309.667 17.6665ZM304 19.9998H305C305.552 19.9998 306 20.4476 306 20.9998V27.3332C306 27.8855 305.552 28.3332 305 28.3332H304C303.448 28.3332 303 27.8855 303 27.3332V20.9998C303 20.4476 303.448 19.9998 304 19.9998ZM300.333 22.3332H299.333C298.781 22.3332 298.333 22.7809 298.333 23.3332V27.3332C298.333 27.8855 298.781 28.3332 299.333 28.3332H300.333C300.886 28.3332 301.333 27.8855 301.333 27.3332V23.3332C301.333 22.7809 300.886 22.3332 300.333 22.3332ZM295.667 24.3332H294.667C294.114 24.3332 293.667 24.7809 293.667 25.3332V27.3332C293.667 27.8855 294.114 28.3332 294.667 28.3332H295.667C296.219 28.3332 296.667 27.8855 296.667 27.3332V25.3332C296.667 24.7809 296.219 24.3332 295.667 24.3332Z" fill="black"/>
<path d="M37.3208 28.2563C40.0088 28.2563 41.6055 26.1543 41.6055 22.5947C41.6055 21.2544 41.3491 20.1265 40.8584 19.2549C40.1479 17.8999 38.9248 17.1675 37.3794 17.1675C35.0796 17.1675 33.4536 18.7129 33.4536 20.8809C33.4536 22.917 34.9185 24.3965 36.9326 24.3965C38.1704 24.3965 39.1738 23.8179 39.6719 22.8145H39.6938C39.6938 22.8145 39.7231 22.8145 39.7305 22.8145C39.7451 22.8145 39.7964 22.8145 39.7964 22.8145C39.7964 25.2314 38.8809 26.6743 37.3354 26.6743C36.4272 26.6743 35.7241 26.1763 35.4824 25.3779H33.6001C33.915 27.1138 35.3872 28.2563 37.3208 28.2563ZM37.3867 22.895C36.1709 22.895 35.3066 22.0308 35.3066 20.8223C35.3066 19.6431 36.2148 18.7422 37.394 18.7422C38.5732 18.7422 39.4814 19.6577 39.4814 20.8516C39.4814 22.0308 38.5952 22.895 37.3867 22.895Z" fill="black"/>
<path d="M44.6966 28.1538C45.3924 28.1538 45.8685 27.6558 45.8685 26.9966C45.8685 26.3301 45.3924 25.8394 44.6966 25.8394C44.0081 25.8394 43.5247 26.3301 43.5247 26.9966C43.5247 27.6558 44.0081 28.1538 44.6966 28.1538ZM44.6966 22.6606C45.3924 22.6606 45.8685 22.1699 45.8685 21.5107C45.8685 20.8442 45.3924 20.3535 44.6966 20.3535C44.0081 20.3535 43.5247 20.8442 43.5247 21.5107C43.5247 22.1699 44.0081 22.6606 44.6966 22.6606Z" fill="black"/>
<path d="M52.7242 28H54.5333V26.0298H55.9615V24.4331H54.5333V17.4312H51.8673C49.9996 20.2437 48.5128 22.5947 47.5606 24.3452V26.0298H52.7242V28ZM49.3111 24.3672C50.5416 22.1992 51.6402 20.4634 52.651 18.9692H52.7535V24.4771H49.3111V24.3672Z" fill="black"/>
<path d="M59.9901 28H61.8798V17.4312H59.9975L57.2362 19.3647V21.1812L59.8656 19.3354H59.9901V28Z" fill="black"/>
</g>
<rect x="16" y="52" width="255" height="38" rx="8" fill="#FAFAFA"/>
<g clip-path="url(#clip1_2466_46413)">
<path d="M41.829 77.0046L38.347 73.5227C39.2959 72.3622 39.7624 70.8814 39.6501 69.3866C39.5378 67.8918 38.8552 66.4973 37.7436 65.4917C36.632 64.486 35.1764 63.946 33.6778 63.9835C32.1793 64.021 30.7524 64.633 29.6925 65.693C28.6325 66.7529 28.0205 68.1798 27.983 69.6783C27.9456 71.1769 28.4855 72.6325 29.4912 73.7441C30.4968 74.8557 31.8913 75.5383 33.3861 75.6506C34.8809 75.7629 36.3617 75.2964 37.5222 74.3475L41.0041 77.8294C41.1141 77.9357 41.2615 77.9945 41.4144 77.9932C41.5674 77.9918 41.7137 77.9305 41.8219 77.8223C41.93 77.7142 41.9914 77.5679 41.9927 77.4149C41.994 77.262 41.9352 77.1146 41.829 77.0046ZM33.8332 74.5004C32.9102 74.5004 32.008 74.2267 31.2405 73.7139C30.4731 73.2011 29.875 72.4723 29.5218 71.6196C29.1686 70.7668 29.0761 69.8285 29.2562 68.9233C29.4363 68.018 29.8807 67.1865 30.5334 66.5339C31.186 65.8812 32.0175 65.4368 32.9228 65.2567C33.828 65.0766 34.7663 65.169 35.6191 65.5223C36.4718 65.8755 37.2006 66.4736 37.7134 67.241C38.2262 68.0085 38.4999 68.9107 38.4999 69.8337C38.4985 71.0709 38.0064 72.2571 37.1315 73.132C36.2566 74.0069 35.0705 74.499 33.8332 74.5004Z" fill="#7266BA"/>
</g>
<path d="M48.3402 76C48.1162 76 47.9435 75.9393 47.8222 75.818C47.7009 75.6967 47.6402 75.524 47.6402 75.3V66.83C47.6402 66.606 47.7009 66.4333 47.8222 66.312C47.9435 66.1907 48.1162 66.13 48.3402 66.13H51.6582C52.3395 66.13 52.9182 66.2327 53.3942 66.438C53.8795 66.6433 54.2482 66.9373 54.5002 67.32C54.7522 67.7027 54.8782 68.1647 54.8782 68.706C54.8782 69.3127 54.7009 69.8213 54.3462 70.232C53.9915 70.6427 53.5062 70.918 52.8902 71.058V70.848C53.5809 70.932 54.1222 71.1887 54.5142 71.618C54.9155 72.038 55.1162 72.5887 55.1162 73.27C55.1162 74.1473 54.8269 74.824 54.2482 75.3C53.6789 75.7667 52.8715 76 51.8262 76H48.3402ZM48.9002 74.978H51.6862C52.4142 74.978 52.9555 74.838 53.3102 74.558C53.6649 74.2687 53.8422 73.83 53.8422 73.242C53.8422 72.654 53.6649 72.22 53.3102 71.94C52.9555 71.66 52.4142 71.52 51.6862 71.52H48.9002V74.978ZM48.9002 70.484H51.4622C52.1715 70.484 52.7035 70.344 53.0582 70.064C53.4222 69.7747 53.6042 69.3593 53.6042 68.818C53.6042 68.2767 53.4222 67.866 53.0582 67.586C52.7035 67.2967 52.1715 67.152 51.4622 67.152H48.9002V70.484ZM59.1441 76.126C58.6775 76.126 58.2528 76.0327 57.8701 75.846C57.4968 75.6593 57.2028 75.4073 56.9881 75.09C56.7828 74.7727 56.6801 74.418 56.6801 74.026C56.6801 73.522 56.8061 73.1253 57.0581 72.836C57.3101 72.5467 57.7348 72.3413 58.3321 72.22C58.9295 72.0893 59.7321 72.024 60.7401 72.024H61.3981V72.836H60.7681C60.0495 72.836 59.4801 72.8687 59.0601 72.934C58.6495 72.9993 58.3601 73.116 58.1921 73.284C58.0241 73.4427 57.9401 73.6667 57.9401 73.956C57.9401 74.32 58.0661 74.6187 58.3181 74.852C58.5795 75.0853 58.9341 75.202 59.3821 75.202C59.7368 75.202 60.0495 75.118 60.3201 74.95C60.5908 74.7727 60.8055 74.5393 60.9641 74.25C61.1228 73.9513 61.2021 73.6107 61.2021 73.228V71.618C61.2021 71.0673 61.0901 70.6707 60.8661 70.428C60.6421 70.176 60.2641 70.05 59.7321 70.05C59.4241 70.05 59.1068 70.092 58.7801 70.176C58.4535 70.26 58.1128 70.3907 57.7581 70.568C57.6181 70.6333 57.4968 70.6567 57.3941 70.638C57.2915 70.61 57.2075 70.554 57.1421 70.47C57.0861 70.3767 57.0535 70.2787 57.0441 70.176C57.0441 70.064 57.0675 69.9567 57.1141 69.854C57.1701 69.7513 57.2635 69.6767 57.3941 69.63C57.8048 69.4247 58.2108 69.28 58.6121 69.196C59.0228 69.1027 59.4055 69.056 59.7601 69.056C60.3668 69.056 60.8661 69.154 61.2581 69.35C61.6501 69.5367 61.9441 69.8307 62.1401 70.232C62.3361 70.624 62.4341 71.128 62.4341 71.744V75.44C62.4341 75.6547 62.3828 75.818 62.2801 75.93C62.1775 76.042 62.0281 76.098 61.8321 76.098C61.6455 76.098 61.4961 76.042 61.3841 75.93C61.2815 75.818 61.2301 75.6547 61.2301 75.44V74.446H61.3561C61.2815 74.7913 61.1415 75.09 60.9361 75.342C60.7308 75.594 60.4741 75.79 60.1661 75.93C59.8675 76.0607 59.5268 76.126 59.1441 76.126ZM59.7321 78.73C59.4988 78.73 59.3168 78.6647 59.1861 78.534C59.0555 78.4127 58.9901 78.24 58.9901 78.016C58.9901 77.7827 59.0555 77.6053 59.1861 77.484C59.3168 77.3627 59.4988 77.302 59.7321 77.302C59.9748 77.302 60.1568 77.3627 60.2781 77.484C60.4088 77.6053 60.4741 77.7827 60.4741 78.016C60.4741 78.24 60.4088 78.4127 60.2781 78.534C60.1568 78.6647 59.9748 78.73 59.7321 78.73ZM65.069 76.098C64.873 76.098 64.719 76.042 64.607 75.93C64.495 75.818 64.439 75.6547 64.439 75.44V69.728C64.439 69.5133 64.495 69.3547 64.607 69.252C64.719 69.14 64.873 69.084 65.069 69.084C65.265 69.084 65.4143 69.14 65.517 69.252C65.629 69.3547 65.685 69.5133 65.685 69.728V70.876L65.531 70.666C65.727 70.134 66.0443 69.7327 66.483 69.462C66.931 69.1913 67.4397 69.056 68.009 69.056C68.5597 69.056 69.0123 69.154 69.367 69.35C69.7217 69.546 69.9877 69.8447 70.165 70.246C70.3423 70.6473 70.431 71.156 70.431 71.772V75.44C70.431 75.6547 70.375 75.818 70.263 75.93C70.1603 76.042 70.0063 76.098 69.801 76.098C69.5957 76.098 69.437 76.042 69.325 75.93C69.213 75.818 69.157 75.6547 69.157 75.44V71.842C69.157 71.2353 69.0403 70.792 68.807 70.512C68.5737 70.232 68.2003 70.092 67.687 70.092C67.0897 70.092 66.609 70.2787 66.245 70.652C65.8903 71.016 65.713 71.5107 65.713 72.136V75.44C65.713 75.8787 65.4983 76.098 65.069 76.098ZM76.7591 76.098C76.5631 76.098 76.4091 76.042 76.2971 75.93C76.1851 75.818 76.1291 75.6547 76.1291 75.44V69.728C76.1291 69.5133 76.1851 69.3547 76.2971 69.252C76.4091 69.14 76.5631 69.084 76.7591 69.084C76.9551 69.084 77.1044 69.14 77.2071 69.252C77.3191 69.3547 77.3751 69.5133 77.3751 69.728V70.918L77.2211 70.666C77.3984 70.1527 77.6831 69.756 78.0751 69.476C78.4764 69.196 78.9524 69.056 79.5031 69.056C80.0818 69.056 80.5484 69.196 80.9031 69.476C81.2578 69.7467 81.4958 70.162 81.6171 70.722H81.4211C81.5891 70.2087 81.8878 69.8027 82.3171 69.504C82.7558 69.2053 83.2644 69.056 83.8431 69.056C84.3564 69.056 84.7764 69.1587 85.1031 69.364C85.4391 69.56 85.6911 69.8587 85.8591 70.26C86.0271 70.652 86.1111 71.156 86.1111 71.772V75.44C86.1111 75.6547 86.0551 75.818 85.9431 75.93C85.8311 76.042 85.6771 76.098 85.4811 76.098C85.2758 76.098 85.1171 76.042 85.0051 75.93C84.8931 75.818 84.8371 75.6547 84.8371 75.44V71.828C84.8371 71.2307 84.7344 70.792 84.5291 70.512C84.3238 70.232 83.9784 70.092 83.4931 70.092C82.9611 70.092 82.5364 70.2787 82.2191 70.652C81.9111 71.016 81.7571 71.52 81.7571 72.164V75.44C81.7571 75.6547 81.7011 75.818 81.5891 75.93C81.4864 76.042 81.3324 76.098 81.1271 76.098C80.9218 76.098 80.7631 76.042 80.6511 75.93C80.5391 75.818 80.4831 75.6547 80.4831 75.44V71.828C80.4831 71.2307 80.3804 70.792 80.1751 70.512C79.9698 70.232 79.6244 70.092 79.1391 70.092C78.6071 70.092 78.1824 70.2787 77.8651 70.652C77.5571 71.016 77.4031 71.52 77.4031 72.164V75.44C77.4031 75.8787 77.1884 76.098 76.7591 76.098ZM90.5957 76.126C90.045 76.126 89.583 76.0233 89.2097 75.818C88.8457 75.6127 88.575 75.3093 88.3977 74.908C88.2204 74.5067 88.1317 74.0027 88.1317 73.396V69.728C88.1317 69.5133 88.183 69.3547 88.2857 69.252C88.3977 69.14 88.5564 69.084 88.7617 69.084C88.967 69.084 89.1257 69.14 89.2377 69.252C89.3497 69.3547 89.4057 69.5133 89.4057 69.728V73.396C89.4057 73.9747 89.5224 74.404 89.7557 74.684C89.989 74.9547 90.3577 75.09 90.8617 75.09C91.4217 75.09 91.8744 74.9033 92.2197 74.53C92.5744 74.1567 92.7517 73.662 92.7517 73.046V69.728C92.7517 69.5133 92.803 69.3547 92.9057 69.252C93.0177 69.14 93.1764 69.084 93.3817 69.084C93.587 69.084 93.7457 69.14 93.8577 69.252C93.9697 69.3547 94.0257 69.5133 94.0257 69.728V75.44C94.0257 75.8787 93.8204 76.098 93.4097 76.098C93.2044 76.098 93.0457 76.042 92.9337 75.93C92.831 75.818 92.7797 75.6547 92.7797 75.44V74.222L92.9617 74.46C92.775 75.0013 92.4717 75.4167 92.0517 75.706C91.641 75.986 91.1557 76.126 90.5957 76.126ZM98.9737 76.126C98.3017 76.126 97.7184 75.9813 97.2237 75.692C96.729 75.4027 96.3464 74.992 96.0757 74.46C95.805 73.928 95.6697 73.3027 95.6697 72.584C95.6697 72.0427 95.7444 71.5573 95.8937 71.128C96.0524 70.6893 96.2764 70.316 96.5657 70.008C96.855 69.7 97.2004 69.4667 97.6017 69.308C98.0124 69.14 98.4697 69.056 98.9737 69.056C99.6457 69.056 100.229 69.2007 100.724 69.49C101.218 69.7793 101.601 70.19 101.872 70.722C102.142 71.2447 102.278 71.8653 102.278 72.584C102.278 73.1253 102.198 73.6153 102.04 74.054C101.89 74.4927 101.671 74.866 101.382 75.174C101.092 75.482 100.742 75.72 100.332 75.888C99.9304 76.0467 99.4777 76.126 98.9737 76.126ZM98.9737 75.118C99.3844 75.118 99.739 75.02 100.038 74.824C100.346 74.628 100.579 74.3433 100.738 73.97C100.906 73.5967 100.99 73.1347 100.99 72.584C100.99 71.7627 100.808 71.1373 100.444 70.708C100.08 70.2787 99.5897 70.064 98.9737 70.064C98.5724 70.064 98.2177 70.162 97.9097 70.358C97.611 70.5447 97.3777 70.8247 97.2097 71.198C97.0417 71.5713 96.9577 72.0333 96.9577 72.584C96.9577 73.4053 97.1397 74.0353 97.5037 74.474C97.877 74.9033 98.367 75.118 98.9737 75.118ZM97.7557 68.216C97.6624 68.3187 97.5644 68.3793 97.4617 68.398C97.3684 68.4073 97.2844 68.3887 97.2097 68.342C97.135 68.286 97.0884 68.216 97.0697 68.132C97.051 68.0387 97.079 67.936 97.1537 67.824L98.2037 66.27C98.3157 66.1113 98.4324 66.004 98.5537 65.948C98.6844 65.8827 98.8244 65.85 98.9737 65.85C99.0764 65.85 99.1744 65.864 99.2677 65.892C99.361 65.92 99.445 65.962 99.5197 66.018C99.6037 66.074 99.6784 66.158 99.7437 66.27L100.794 67.824C100.868 67.936 100.896 68.0387 100.878 68.132C100.859 68.216 100.812 68.286 100.738 68.342C100.672 68.3887 100.588 68.4073 100.486 68.398C100.383 68.3793 100.29 68.3187 100.206 68.216L98.9737 66.788L97.7557 68.216ZM101.074 66.886C101.008 66.97 100.929 67.0167 100.836 67.026C100.752 67.0353 100.672 67.0213 100.598 66.984C100.532 66.9373 100.49 66.872 100.472 66.788C100.453 66.6947 100.472 66.592 100.528 66.48L101.466 64.842C101.54 64.7207 101.624 64.6413 101.718 64.604C101.82 64.5667 101.918 64.562 102.012 64.59C102.114 64.6087 102.198 64.6553 102.264 64.73C102.329 64.8047 102.362 64.8933 102.362 64.996C102.371 65.0893 102.338 65.192 102.264 65.304L101.074 66.886ZM104.54 76.098C104.344 76.098 104.19 76.042 104.078 75.93C103.966 75.818 103.91 75.6547 103.91 75.44V69.728C103.91 69.5133 103.966 69.3547 104.078 69.252C104.19 69.14 104.344 69.084 104.54 69.084C104.736 69.084 104.885 69.14 104.988 69.252C105.1 69.3547 105.156 69.5133 105.156 69.728V70.876L105.002 70.666C105.198 70.134 105.515 69.7327 105.954 69.462C106.402 69.1913 106.91 69.056 107.48 69.056C108.03 69.056 108.483 69.154 108.838 69.35C109.192 69.546 109.458 69.8447 109.636 70.246C109.813 70.6473 109.902 71.156 109.902 71.772V75.44C109.902 75.6547 109.846 75.818 109.734 75.93C109.631 76.042 109.477 76.098 109.272 76.098C109.066 76.098 108.908 76.042 108.796 75.93C108.684 75.818 108.628 75.6547 108.628 75.44V71.842C108.628 71.2353 108.511 70.792 108.278 70.512C108.044 70.232 107.671 70.092 107.158 70.092C106.56 70.092 106.08 70.2787 105.716 70.652C105.361 71.016 105.184 71.5107 105.184 72.136V75.44C105.184 75.8787 104.969 76.098 104.54 76.098ZM118.4 76.126C117.849 76.126 117.387 76.028 117.014 75.832C116.65 75.636 116.374 75.3513 116.188 74.978C116.01 74.6047 115.922 74.1473 115.922 73.606V70.162H115.026C114.858 70.162 114.727 70.12 114.634 70.036C114.54 69.9427 114.494 69.8213 114.494 69.672C114.494 69.5133 114.54 69.392 114.634 69.308C114.727 69.224 114.858 69.182 115.026 69.182H115.922V67.656C115.922 67.4413 115.978 67.2827 116.09 67.18C116.202 67.068 116.36 67.012 116.566 67.012C116.771 67.012 116.925 67.068 117.028 67.18C117.14 67.2827 117.196 67.4413 117.196 67.656V69.182H118.89C119.067 69.182 119.202 69.224 119.296 69.308C119.389 69.392 119.436 69.5133 119.436 69.672C119.436 69.8213 119.389 69.9427 119.296 70.036C119.202 70.12 119.067 70.162 118.89 70.162H117.196V73.494C117.196 74.0073 117.303 74.3947 117.518 74.656C117.732 74.9173 118.087 75.048 118.582 75.048C118.759 75.048 118.908 75.034 119.03 75.006C119.151 74.9687 119.258 74.95 119.352 74.95C119.436 74.9407 119.506 74.9687 119.562 75.034C119.627 75.0993 119.66 75.2207 119.66 75.398C119.66 75.5287 119.636 75.65 119.59 75.762C119.552 75.8647 119.473 75.9347 119.352 75.972C119.24 76.0093 119.09 76.042 118.904 76.07C118.717 76.1073 118.549 76.126 118.4 76.126ZM121.329 76.07C121.133 76.07 120.979 76.0093 120.867 75.888C120.755 75.7667 120.699 75.5987 120.699 75.384V69.798C120.699 69.574 120.755 69.406 120.867 69.294C120.979 69.1727 121.133 69.112 121.329 69.112C121.534 69.112 121.693 69.1727 121.805 69.294C121.917 69.406 121.973 69.574 121.973 69.798V75.384C121.973 75.5987 121.917 75.7667 121.805 75.888C121.702 76.0093 121.543 76.07 121.329 76.07ZM120.839 68.202L119.439 66.074C119.355 65.9433 119.322 65.822 119.341 65.71C119.359 65.598 119.411 65.5047 119.495 65.43C119.579 65.346 119.677 65.29 119.789 65.262C119.901 65.234 120.013 65.2433 120.125 65.29C120.237 65.3273 120.33 65.4207 120.405 65.57L121.539 67.796C121.595 67.9173 121.604 68.0247 121.567 68.118C121.539 68.2113 121.478 68.286 121.385 68.342C121.291 68.3887 121.193 68.4027 121.091 68.384C120.988 68.3653 120.904 68.3047 120.839 68.202ZM124.679 76.098C124.483 76.098 124.329 76.042 124.217 75.93C124.105 75.818 124.049 75.6547 124.049 75.44V69.728C124.049 69.5133 124.105 69.3547 124.217 69.252C124.329 69.14 124.483 69.084 124.679 69.084C124.875 69.084 125.024 69.14 125.127 69.252C125.239 69.3547 125.295 69.5133 125.295 69.728V70.918L125.141 70.666C125.318 70.1527 125.603 69.756 125.995 69.476C126.396 69.196 126.872 69.056 127.423 69.056C128.002 69.056 128.468 69.196 128.823 69.476C129.178 69.7467 129.416 70.162 129.537 70.722H129.341C129.509 70.2087 129.808 69.8027 130.237 69.504C130.676 69.2053 131.184 69.056 131.763 69.056C132.276 69.056 132.696 69.1587 133.023 69.364C133.359 69.56 133.611 69.8587 133.779 70.26C133.947 70.652 134.031 71.156 134.031 71.772V75.44C134.031 75.6547 133.975 75.818 133.863 75.93C133.751 76.042 133.597 76.098 133.401 76.098C133.196 76.098 133.037 76.042 132.925 75.93C132.813 75.818 132.757 75.6547 132.757 75.44V71.828C132.757 71.2307 132.654 70.792 132.449 70.512C132.244 70.232 131.898 70.092 131.413 70.092C130.881 70.092 130.456 70.2787 130.139 70.652C129.831 71.016 129.677 71.52 129.677 72.164V75.44C129.677 75.6547 129.621 75.818 129.509 75.93C129.406 76.042 129.252 76.098 129.047 76.098C128.842 76.098 128.683 76.042 128.571 75.93C128.459 75.818 128.403 75.6547 128.403 75.44V71.828C128.403 71.2307 128.3 70.792 128.095 70.512C127.89 70.232 127.544 70.092 127.059 70.092C126.527 70.092 126.102 70.2787 125.785 70.652C125.477 71.016 125.323 71.52 125.323 72.164V75.44C125.323 75.8787 125.108 76.098 124.679 76.098ZM142.796 78.646C142.292 78.646 141.802 78.59 141.326 78.478C140.859 78.366 140.435 78.1933 140.052 77.96C139.931 77.8853 139.847 77.7967 139.8 77.694C139.763 77.6007 139.753 77.5027 139.772 77.4C139.8 77.2973 139.847 77.204 139.912 77.12C139.987 77.0453 140.071 76.994 140.164 76.966C140.267 76.9473 140.369 76.9707 140.472 77.036C140.883 77.2693 141.275 77.428 141.648 77.512C142.021 77.596 142.376 77.638 142.712 77.638C143.375 77.638 143.869 77.4653 144.196 77.12C144.532 76.784 144.7 76.2893 144.7 75.636V74.124H144.826C144.695 74.6467 144.401 75.062 143.944 75.37C143.496 75.678 142.973 75.832 142.376 75.832C141.76 75.832 141.223 75.692 140.766 75.412C140.309 75.1227 139.954 74.726 139.702 74.222C139.45 73.7087 139.324 73.116 139.324 72.444C139.324 71.9307 139.394 71.4687 139.534 71.058C139.683 70.638 139.889 70.2833 140.15 69.994C140.421 69.6953 140.743 69.4667 141.116 69.308C141.489 69.14 141.909 69.056 142.376 69.056C142.983 69.056 143.51 69.21 143.958 69.518C144.406 69.826 144.695 70.2413 144.826 70.764L144.672 70.96V69.728C144.672 69.5133 144.728 69.3547 144.84 69.252C144.952 69.14 145.111 69.084 145.316 69.084C145.512 69.084 145.666 69.14 145.778 69.252C145.89 69.3547 145.946 69.5133 145.946 69.728V75.468C145.946 76.5227 145.675 77.316 145.134 77.848C144.602 78.38 143.823 78.646 142.796 78.646ZM142.656 74.824C143.076 74.824 143.435 74.7307 143.734 74.544C144.042 74.348 144.275 74.0727 144.434 73.718C144.602 73.354 144.686 72.9293 144.686 72.444C144.686 71.7067 144.504 71.128 144.14 70.708C143.776 70.2787 143.281 70.064 142.656 70.064C142.236 70.064 141.872 70.162 141.564 70.358C141.265 70.5447 141.032 70.8153 140.864 71.17C140.696 71.5247 140.612 71.9493 140.612 72.444C140.612 73.172 140.794 73.7507 141.158 74.18C141.531 74.6093 142.031 74.824 142.656 74.824ZM148.618 76.07C148.422 76.07 148.268 76.0093 148.156 75.888C148.044 75.7667 147.988 75.5987 147.988 75.384V69.798C147.988 69.574 148.044 69.406 148.156 69.294C148.268 69.1727 148.422 69.112 148.618 69.112C148.823 69.112 148.982 69.1727 149.094 69.294C149.206 69.406 149.262 69.574 149.262 69.798V75.384C149.262 75.5987 149.206 75.7667 149.094 75.888C148.991 76.0093 148.832 76.07 148.618 76.07ZM148.128 68.202L146.728 66.074C146.644 65.9433 146.611 65.822 146.63 65.71C146.648 65.598 146.7 65.5047 146.784 65.43C146.868 65.346 146.966 65.29 147.078 65.262C147.19 65.234 147.302 65.2433 147.414 65.29C147.526 65.3273 147.619 65.4207 147.694 65.57L148.828 67.796C148.884 67.9173 148.893 68.0247 148.856 68.118C148.828 68.2113 148.767 68.286 148.674 68.342C148.58 68.3887 148.482 68.4027 148.38 68.384C148.277 68.3653 148.193 68.3047 148.128 68.202ZM153.256 73.396C153.125 73.396 153.023 73.354 152.948 73.27C152.873 73.186 152.836 73.0647 152.836 72.906C152.836 72.5887 152.873 72.29 152.948 72.01C153.023 71.73 153.144 71.45 153.312 71.17C153.489 70.8807 153.723 70.568 154.012 70.232C154.236 69.9707 154.413 69.7373 154.544 69.532C154.684 69.3267 154.782 69.1307 154.838 68.944C154.903 68.748 154.936 68.5473 154.936 68.342C154.936 67.9687 154.801 67.6747 154.53 67.46C154.269 67.236 153.9 67.124 153.424 67.124C153.004 67.124 152.617 67.1893 152.262 67.32C151.917 67.4413 151.581 67.614 151.254 67.838C151.105 67.9407 150.965 67.992 150.834 67.992C150.703 67.992 150.596 67.9547 150.512 67.88C150.437 67.8053 150.386 67.712 150.358 67.6C150.339 67.488 150.358 67.3713 150.414 67.25C150.47 67.1193 150.568 67.0027 150.708 66.9C151.081 66.62 151.515 66.4007 152.01 66.242C152.505 66.0833 152.995 66.004 153.48 66.004C154.031 66.004 154.511 66.0973 154.922 66.284C155.333 66.4707 155.655 66.732 155.888 67.068C156.121 67.3947 156.238 67.782 156.238 68.23C156.238 68.5287 156.196 68.8087 156.112 69.07C156.028 69.3313 155.893 69.5973 155.706 69.868C155.519 70.1387 155.267 70.4373 154.95 70.764C154.661 71.0627 154.423 71.338 154.236 71.59C154.059 71.8327 153.928 72.066 153.844 72.29C153.769 72.514 153.718 72.7567 153.69 73.018C153.681 73.13 153.639 73.2233 153.564 73.298C153.489 73.3633 153.387 73.396 153.256 73.396ZM153.242 76.056C152.99 76.056 152.785 75.9767 152.626 75.818C152.477 75.6593 152.402 75.4587 152.402 75.216C152.402 74.9733 152.477 74.7773 152.626 74.628C152.785 74.4787 152.99 74.404 153.242 74.404C153.494 74.404 153.695 74.4787 153.844 74.628C153.993 74.7773 154.068 74.9733 154.068 75.216C154.068 75.4587 153.993 75.6593 153.844 75.818C153.695 75.9767 153.494 76.056 153.242 76.056Z" fill="#262626"/>
<rect x="279" y="53" width="36" height="36" rx="8" fill="#FAFAFA"/>
<g clip-path="url(#clip2_2466_46413)">
<path d="M304.142 65.718C303.954 65.493 303.72 65.312 303.454 65.1879C303.189 65.0638 302.9 64.9996 302.607 65H291.828L291.8 64.766C291.743 64.2796 291.509 63.8312 291.143 63.5057C290.777 63.1801 290.304 63.0002 289.815 63H289.667C289.49 63 289.32 63.0702 289.195 63.1953C289.07 63.3203 289 63.4899 289 63.6667C289 63.8435 289.07 64.013 289.195 64.1381C289.32 64.2631 289.49 64.3333 289.667 64.3333H289.815C289.978 64.3334 290.136 64.3933 290.258 64.5018C290.38 64.6103 290.458 64.7598 290.477 64.922L291.394 72.722C291.489 73.5332 291.879 74.2812 292.489 74.824C293.1 75.3668 293.888 75.6667 294.705 75.6667H301.667C301.843 75.6667 302.013 75.5964 302.138 75.4714C302.263 75.3464 302.333 75.1768 302.333 75C302.333 74.8232 302.263 74.6536 302.138 74.5286C302.013 74.4036 301.843 74.3333 301.667 74.3333H294.705C294.292 74.3322 293.89 74.2034 293.553 73.9647C293.217 73.726 292.962 73.389 292.825 73H300.771C301.553 73 302.31 72.7255 302.909 72.2243C303.509 71.7231 303.913 71.0271 304.052 70.258L304.575 67.3553C304.628 67.0673 304.616 66.7714 304.541 66.4884C304.466 66.2055 304.33 65.9425 304.142 65.718Z" fill="#7266BA"/>
<path d="M293.667 79.0004C294.403 79.0004 295 78.4034 295 77.6671C295 76.9307 294.403 76.3337 293.667 76.3337C292.93 76.3337 292.333 76.9307 292.333 77.6671C292.333 78.4034 292.93 79.0004 293.667 79.0004Z" fill="#7266BA"/>
<path d="M300.333 79.0004C301.07 79.0004 301.667 78.4034 301.667 77.6671C301.667 76.9307 301.07 76.3337 300.333 76.3337C299.597 76.3337 299 76.9307 299 77.6671C299 78.4034 299.597 79.0004 300.333 79.0004Z" fill="#7266BA"/>
</g>
<rect x="323" y="53" width="36" height="36" rx="8" fill="#FAFAFA"/>
<g clip-path="url(#clip3_2466_46413)">
<path d="M333 75.6667C333.001 76.5505 333.353 77.3977 333.977 78.0226C334.602 78.6475 335.45 78.999 336.333 79.0001H345.667C346.55 78.999 347.398 78.6475 348.023 78.0226C348.647 77.3977 348.999 76.5505 349 75.6667V69.6667H333V75.6667ZM344.333 72.6667C344.531 72.6667 344.724 72.7254 344.889 72.8353C345.053 72.9452 345.182 73.1013 345.257 73.2841C345.333 73.4668 345.353 73.6679 345.314 73.8618C345.276 74.0558 345.18 74.234 345.04 74.3739C344.901 74.5137 344.722 74.6089 344.528 74.6475C344.334 74.6861 344.133 74.6663 343.951 74.5906C343.768 74.5149 343.612 74.3868 343.502 74.2223C343.392 74.0579 343.333 73.8645 343.333 73.6667C343.333 73.4015 343.439 73.1472 343.626 72.9596C343.814 72.7721 344.068 72.6667 344.333 72.6667ZM341 72.6667C341.198 72.6667 341.391 72.7254 341.556 72.8353C341.72 72.9452 341.848 73.1013 341.924 73.2841C342 73.4668 342.019 73.6679 341.981 73.8618C341.942 74.0558 341.847 74.234 341.707 74.3739C341.567 74.5137 341.389 74.6089 341.195 74.6475C341.001 74.6861 340.8 74.6663 340.617 74.5906C340.435 74.5149 340.278 74.3868 340.169 74.2223C340.059 74.0579 340 73.8645 340 73.6667C340 73.4015 340.105 73.1472 340.293 72.9596C340.48 72.7721 340.735 72.6667 341 72.6667ZM337.667 72.6667C337.864 72.6667 338.058 72.7254 338.222 72.8353C338.387 72.9452 338.515 73.1013 338.591 73.2841C338.666 73.4668 338.686 73.6679 338.647 73.8618C338.609 74.0558 338.514 74.234 338.374 74.3739C338.234 74.5137 338.056 74.6089 337.862 74.6475C337.668 74.6861 337.467 74.6663 337.284 74.5906C337.101 74.5149 336.945 74.3868 336.835 74.2223C336.725 74.0579 336.667 73.8645 336.667 73.6667C336.667 73.4015 336.772 73.1472 336.96 72.9596C337.147 72.7721 337.401 72.6667 337.667 72.6667Z" fill="#7266BA"/>
<path d="M345.667 64.3333H345V63.6667C345 63.4899 344.93 63.3203 344.805 63.1953C344.68 63.0702 344.51 63 344.333 63C344.157 63 343.987 63.0702 343.862 63.1953C343.737 63.3203 343.667 63.4899 343.667 63.6667V64.3333H338.333V63.6667C338.333 63.4899 338.263 63.3203 338.138 63.1953C338.013 63.0702 337.843 63 337.667 63C337.49 63 337.32 63.0702 337.195 63.1953C337.07 63.3203 337 63.4899 337 63.6667V64.3333H336.333C335.45 64.3344 334.602 64.6859 333.977 65.3108C333.353 65.9357 333.001 66.7829 333 67.6667V68.3333H349V67.6667C348.999 66.7829 348.647 65.9357 348.023 65.3108C347.398 64.6859 346.55 64.3344 345.667 64.3333Z" fill="#7266BA"/>
</g>
<defs>
<clipPath id="clip0_2466_46413">
<rect width="375" height="44" fill="white"/>
</clipPath>
<clipPath id="clip1_2466_46413">
<rect width="14" height="14" fill="white" transform="translate(28 64)"/>
</clipPath>
<clipPath id="clip2_2466_46413">
<rect width="16" height="16" fill="white" transform="translate(289 63)"/>
</clipPath>
<clipPath id="clip3_2466_46413">
<rect width="16" height="16" fill="white" transform="translate(333 63)"/>
</clipPath>
</defs>
</svg>
